#!OML:ASF I:\Actors\actors\Patient Classification 1\Patient 1\Session 1\Subject1.ASF
:FULLY-SPECIFIED
:DEGREES
353
root -0.322241 17.5844 7.52782 7.12669 -1.98106 -7.40562
lowerback 3.96818 1.54622 4.98168
upperback -7.28001 2.62997 1.14639
thorax -9.80302 0.959705 -1.88534
lowerneck -13.0579 -1.75858 2.3167
upperneck 30.9725 -2.18502 -3.14266
head 12.309 -1.11382 -1.90733
rclavicle -2.08724e-014 3.97569e-016
rhumerus -20.0048 40.2436 -89.3598
rradius 103.389
rwrist 5.71865
rhand -22.8887 -35.156
rfingers 7.12502
rthumb 3.55056 -1145.11
lclavicle -2.08724e-014 3.97569e-016
lhumerus -31.6347 -28.6766 104.656
lradius 88.2803
lwrist 10.14
lhand -38.6116 -5.99348
lfingers 7.12502
lthumb -11.6292 23.6638
rfemur -2.2569 24.1764 24.5713
rtibia 2.71015
rfoot -11.0405 -21.4519
rtoes -0.236154
lfemur 6.1652 -39.8131 -15.5735
ltibia -3.68908
lfoot -15.1219 48.785
ltoes 8.27457
354
root -0.323681 17.5843 7.52566 7.09844 -1.95632 -7.48779
lowerback 4.02879 1.49257 5.07242
upperback -7.28065 2.56956 1.14384
thorax -9.84139 0.922074 -1.9335
lowerneck -12.9866 -1.65148 2.45983
upperneck 31.0471 -2.07574 -3.11039
head 12.3269 -1.0433 -1.90539
rclavicle 9.54166e-015 1.11319e-014
rhumerus -19.7667 40.9873 -89.4184
rradius 102.754
rwrist 8.98701
rhand -31.8819 -33.1629
rfingers 7.12502
rthumb -5.13473 -1143.08
lclavicle 9.54166e-015 1.11319e-014
lhumerus -31.6954 -28.5251 104.516
lradius 88.1612
lwrist 10.1689
lhand -38.8804 -6.32983
lfingers 7.12502
lthumb -11.8883 23.3127
rfemur -2.22937 24.1246 24.6897
rtibia 2.71314
rfoot -11.0165 -21.4366
rtoes -0.331704
lfemur 6.17828 -39.7233 -15.4616
ltibia -3.7037
lfoot -15.0859 48.67
ltoes 8.31865
355
root -0.326049 17.5821 7.52429 6.97129 -2.05596 -7.55639
lowerback 4.12545 1.52054 5.10948
upperback -7.23694 2.61356 1.12528
thorax -9.84538 0.940191 -1.98186
lowerneck -13.04 -1.62562 2.40661
upperneck 31.2026 -2.10111 -2.87107
head 12.4058 -1.02819 -1.81344
rclavicle 1.70955e-014 1.15295e-014
rhumerus -19.828 42.1187 -89.4012
rradius 100.447
rwrist 17.26
rhand -35.8601 -41.2658
rfingers 7.12502
rthumb -8.97476 -1151.05
lclavicle 1.70955e-014 1.15295e-014
lhumerus -31.5904 -28.6599 104.396
lradius 87.942
lwrist 10.1082
lhand -39.1586 -6.60257
lfingers 7.12502
lthumb -12.1566 23.0242
rfemur -2.10957 24.0033 24.8268
rtibia 2.75796
rfoot -11.0291 -21.2196
rtoes -0.368715
lfemur 6.45385 -39.7671 -15.5718
ltibia -3.72784
lfoot -15.2554 48.8101
ltoes 8.51235
356
root -0.329377 17.5789 7.52303 6.82855 -2.26264 -7.58743
lowerback 4.17211 1.63873 5.12726
upperback -7.15665 2.76794 1.05565
thorax -9.76845 1.01423 -2.08475
lowerneck -13.1918 -1.67908 2.23927
upperneck 31.3294 -2.2599 -2.48966
head 12.4941 -1.06731 -1.66682
rclavicle 7.40473e-015 1.66979e-014
rhumerus -19.814 42.8567 -89.1469
rradius 96.4968
rwrist 23.9469
rhand -32.8663 -45.9379
rfingers 7.12502
rthumb -6.08509 -1155.83
lclavicle 7.40473e-015 1.66979e-014
lhumerus -31.4013 -29.0824 104.279
lradius 87.7828
lwrist 10.1546
lhand -39.3377 -6.74962
lfingers 7.12502
lthumb -12.3293 22.8669
rfemur -2.01756 23.8519 24.9084
rtibia 2.85663
rfoot -11.0238 -20.8744
rtoes -0.499272
lfemur 6.77225 -39.764 -15.7703
ltibia -3.71177
lfoot -15.5323 48.9776
ltoes 8.67877
357
root -0.334802 17.5768 7.51843 6.71511 -2.52079 -7.53825
lowerback 3.92186 1.79695 4.97276
upperback -6.92227 2.93654 1.02064
thorax -9.34941 1.12212 -2.04171
lowerneck -13.3087 -1.76971 2.11233
upperneck 31.1922 -2.43829 -2.24575
head 12.4638 -1.13078 -1.57586
rclavicle 2.78299e-014 1.98785e-014
rhumerus -19.4959 44.1351 -88.8322
rradius 92.1451
rwrist 20.9749
rhand -25.7419 -42.8887
rfingers 7.12502
rthumb 0.795037 -1152.87
lclavicle 2.78299e-014 1.98785e-014
lhumerus -30.9691 -29.6222 104.088
lradius 87.7231
lwrist 10.3618
lhand -39.4756 -6.93662
lfingers 7.12502
lthumb -12.4622 22.6718
rfemur -2.00538 23.7602 24.8748
rtibia 2.98202
rfoot -10.9795 -20.5396
rtoes -0.668401
lfemur 6.94289 -39.5551 -15.9371
ltibia -3.65904
lfoot -15.6279 48.9591
ltoes 8.71258
358
root -0.340084 17.5742 7.50907 6.56797 -2.85684 -7.32544
lowerback 3.99098 1.92327 4.55468
upperback -6.8288 3.07066 1.01642
thorax -9.2941 1.21997 -1.82996
lowerneck -13.3225 -1.81341 2.05101
upperneck 31.1341 -2.50308 -2.19088
head 12.4432 -1.16016 -1.55245
rclavicle 1.41137e-014 -5.1684e-015
rhumerus -19.2203 45.5131 -88.6873
rradius 88.7657
rwrist 12.232
rhand -11.7819 -44.1916
rfingers 7.12502
rthumb 14.2672 -1153.68
lclavicle 1.41137e-014 -5.1684e-015
lhumerus -30.8863 -29.8637 104.038
lradius 87.8116
lwrist 10.5283
lhand -39.494 -6.99303
lfingers 7.12502
lthumb -12.48 22.6143
rfemur -2.00489 23.7848 24.6402
rtibia 3.12916
rfoot -11.0021 -20.2304
rtoes -0.565095
lfemur 7.16509 -39.4643 -16.3357
ltibia -3.60783
lfoot -15.822 49.0946
ltoes 8.98115
359
root -0.339909 17.5694 7.49793 6.34708 -3.32346 -6.94717
lowerback 4.29771 2.06339 4.01701
upperback -6.79783 3.22462 0.964092
thorax -9.4537 1.32699 -1.61704
lowerneck -13.3116 -1.82781 2.06128
upperneck 31.1522 -2.50995 -2.24369
head 12.4468 -1.16875 -1.57551
rclavicle -2.79292e-014 -3.18055e-015
rhumerus -18.5761 45.8245 -88.2649
rradius 87.131
rwrist 0.362302
rhand 3.37074 -54.6865
rfingers 7.12502
rthumb 28.8148 -1162.48
lclavicle -2.79292e-014 -3.18055e-015
lhumerus -31.0022 -29.8971 104.072
lradius 87.9623
lwrist 10.5866
lhand -39.3916 -6.8797
lfingers 7.12502
lthumb -12.3812 22.7336
rfemur -1.96105 23.8708 24.1899
rtibia 3.28214
rfoot -11.0281 -19.9068
rtoes -0.405774
lfemur 7.65711 -39.7966 -17.1927
ltibia -3.55298
lfoot -16.5473 49.7053
ltoes 9.89412
360
root -0.339807 17.568 7.51368 6.32932 -3.28016 -7.13997
lowerback 4.11393 2.1035 4.23102
upperback -6.77856 3.28824 0.988279
thorax -9.31099 1.34799 -1.70894
lowerneck -13.3552 -1.89617 1.9994
upperneck 31.1276 -2.62991 -2.13089
head 12.4459 -1.21477 -1.53903
rclavicle 3.18055e-014 1.66979e-014
rhumerus -18.3949 46.0009 -87.9903
rradius 85.4174
rwrist -9.27173
rhand 2.26774 -58.841
rfingers 7.12502
rthumb 27.7606 -1166.81
lclavicle 3.18055e-014 1.66979e-014
lhumerus -31.1141 -30.0564 104.132
lradius 88.0699
lwrist 10.5101
lhand -39.3161 -6.74582
lfingers 7.12502
lthumb -12.3085 22.8719
rfemur -1.75164 23.5914 24.4822
rtibia 3.13495
rfoot -10.9961 -19.6758
rtoes -0.421354
lfemur 7.92686 -39.9093 -17.1997
ltibia -3.62074
lfoot -16.7557 49.8163
ltoes 10.1661
361
root -0.340638 17.5672 7.51968 6.33805 -3.27881 -7.1933
lowerback 4.34446 2.19998 4.34693
upperback -6.8514 3.43962 0.917524
thorax -9.51033 1.40412 -1.87826
lowerneck -13.4675 -2.0152 1.84432
upperneck 30.9588 -2.84193 -1.88149
head 12.4033 -1.2961 -1.4458
rclavicle -1.3418e-014 -1.59028e-015
rhumerus -19.4272 46.9788 -88.4
rradius 85.3807
rwrist -8.82332
rhand -3.42689 -54.4134
rfingers 7.12502
rthumb 22.3042 -1163.15
lclavicle -1.3418e-014 -1.59028e-015
lhumerus -31.2394 -30.3369 104.251
lradius 88.1883
lwrist 10.3203
lhand -39.1822 -6.56984
lfingers 7.12502
lthumb -12.1793 23.0556
rfemur -1.67831 23.5631 24.5699
rtibia 3.07216
rfoot -11.0122 -19.6088
rtoes -0.249027
lfemur 8.01713 -39.9272 -17.2083
ltibia -3.66222
lfoot -16.9383 49.8527
ltoes 10.3804
362
root -0.344244 17.5651 7.51883 6.31422 -3.16976 -6.91954
lowerback 4.3909 2.2652 4.04137
upperback -6.7146 3.49179 0.850599
thorax -9.39383 1.45342 -1.78462
lowerneck -13.4908 -2.13358 1.64429
upperneck 30.3917 -3.0026 -1.72912
head 12.1817 -1.37704 -1.36502
rclavicle -8.15017e-015 -1.59028e-015
rhumerus -20.038 46.7492 -88.3511
rradius 88.7006
rwrist -3.54035
rhand 0.421835 -57.2472
rfingers 7.12502
rthumb 25.9944 -1165.49
lclavicle -8.15017e-015 -1.59028e-015
lhumerus -31.0169 -30.5355 104.306
lradius 88.3133
lwrist 10.1427
lhand -38.9162 -6.59142
lfingers 7.12502
lthumb -11.9229 23.0491
rfemur -1.61866 23.6945 24.2873
rtibia 3.00907
rfoot -11.0932 -19.8251
rtoes 0.12149
lfemur 7.93067 -39.8311 -17.4411
ltibia -3.64313
lfoot -16.647 49.6703
ltoes 10.0145
363
root -0.345836 17.5642 7.51931 6.36659 -2.7982 -6.59057
lowerback 4.43145 2.19359 3.8332
upperback -6.67749 3.36937 0.750526
thorax -9.3875 1.4049 -1.76173
lowerneck -13.3401 -2.2046 1.45177
upperneck 29.9077 -3.07091 -1.64864
head 11.9607 -1.4246 -1.29883
rclavicle -1.86361e-014 -1.15295e-014
rhumerus -20.6455 45.3865 -88.4984
rradius 92.9218
rwrist -1.23514
rhand 0.121024 -58.1226
rfingers 7.12502
rthumb 25.7063 -1166.41
lclavicle -1.86361e-014 -1.15295e-014
lhumerus -31.0648 -30.4915 104.374
lradius 88.4776
lwrist 9.93068
lhand -38.7839 -6.637
lfingers 7.12502
lthumb -11.7953 23.0108
rfemur -1.60435 23.7687 23.9116
rtibia 2.88528
rfoot -11.1984 -20.2607
rtoes 0.580797
lfemur 7.62435 -39.8544 -17.5968
ltibia -3.57332
lfoot -16.1363 49.3595
ltoes 9.39108
364
root -0.340848 17.5704 7.52852 6.7209 -2.25686 -6.87891
lowerback 4.12793 2.01245 4.35126
upperback -6.75074 3.16589 0.850962
thorax -9.28211 1.27557 -1.90741
lowerneck -13.2003 -2.1793 1.38805
upperneck 29.6386 -2.94871 -1.85454
head 11.8243 -1.40628 -1.33998
rclavicle 9.49197e-015 6.36111e-015
rhumerus -21.2265 44.224 -88.7777
rradius 97.1503
rwrist 1.15495
rhand -5.66707 -55.4341
rfingers 7.12502
rthumb 20.1524 -1164.41
lclavicle 9.49197e-015 6.36111e-015
lhumerus -31.25 -30.1445 104.449
lradius 88.647
lwrist 9.71855
lhand -38.7275 -6.3841
lfingers 7.12502
lthumb -11.7409 23.2669
rfemur -1.84646 23.832 24.1327
rtibia 2.75462
rfoot -11.3034 -20.7787
rtoes 0.985869
lfemur 7.00193 -40.0542 -16.8046
ltibia -3.60962
lfoot -15.72 49.138
ltoes 8.85866
365
root -0.338037 17.5776 7.5383 7.06536 -1.7479 -7.16947
lowerback 3.92941 1.81569 4.76013
upperback -6.89922 2.94279 0.999429
thorax -9.33472 1.14084 -1.94671
lowerneck -13.0986 -2.10223 1.4894
upperneck 29.5693 -2.74443 -2.23668
head 11.7706 -1.35262 -1.46837
rclavicle -1.14301e-014 1.47101e-014
rhumerus -21.3047 42.6745 -88.6935
rradius 101.001
rwrist 6.51554
rhand -8.55911 -54.326
rfingers 7.12502
rthumb 17.3708 -1163.57
lclavicle -1.14301e-014 1.47101e-014
lhumerus -31.6033 -29.7165 104.599
lradius 88.7916
lwrist 9.70368
lhand -38.5944 -6.16913
lfingers 7.12502
lthumb -11.6125 23.4891
rfemur -2.09849 23.9678 24.3693
rtibia 2.66457
rfoot -11.4255 -21.3255
rtoes 1.33822
lfemur 6.38481 -40.2491 -16.0054
ltibia -3.6528
lfoot -15.2999 48.9669
ltoes 8.34788
366
root -0.338677 17.5809 7.54345 7.22065 -1.31579 -7.13634
lowerback 4.02057 1.62781 4.83725
upperback -7.06802 2.71023 1.00146
thorax -9.58976 1.01242 -1.96741
lowerneck -13.0102 -2.04344 1.59445
upperneck 29.6436 -2.62515 -2.43486
head 11.7788 -1.31206 -1.54396
rclavicle -3.36443e-014 -5.1684e-015
rhumerus -21.3323 41.4212 -88.7667
rradius 104.243
rwrist 11.4177
rhand -13.1988 -52.8236
rfingers 7.12502
rthumb 12.9016 -1162.4
lclavicle -3.36443e-014 -5.1684e-015
lhumerus -32.1009 -29.4287 104.761
lradius 88.9034
lwrist 9.93328
lhand -38.5312 -6.1747
lfingers 7.12502
lthumb -11.5516 23.487
rfemur -2.18985 24.1053 24.3112
rtibia 2.60461
rfoot -11.6076 -21.8379
rtoes 1.73718
lfemur 5.96785 -40.3626 -15.7356
ltibia -3.62806
lfoot -14.8481 48.7414
ltoes 7.88233
367
root -0.338334 17.5834 7.54619 7.25985 -0.968177 -7.18111
lowerback 4.15718 1.4475 4.98035
upperback -7.1837 2.49534 1.0139
thorax -9.81171 0.889639 -2.01508
lowerneck -12.9392 -2.00244 1.71104
upperneck 29.7654 -2.55323 -2.57474
head 11.8094 -1.28391 -1.60786
rclavicle -4.87022e-015 -8.74653e-015
rhumerus -21.1676 40.384 -88.7684
rradius 105.213
rwrist 14.846
rhand -20.0648 -48.7452
rfingers 7.12502
rthumb 6.27728 -1158.63
lclavicle -4.87022e-015 -8.74653e-015
lhumerus -32.4736 -29.2192 104.926
lradius 88.9243
lwrist 10.2087
lhand -38.5295 -6.20076
lfingers 7.12502
lthumb -11.55 23.461
rfemur -2.15957 24.2095 24.398
rtibia 2.55719
rfoot -11.7466 -22.2476
rtoes 1.99043
lfemur 5.74011 -40.3516 -15.4927
ltibia -3.62643
lfoot -14.5502 48.4488
ltoes 7.62227
